<svg width="238" height="16" viewBox="0 0 238 16" fill="none" xmlns="http://www.w3.org/2000/svg">
<path d="M0.237793 12V1.33594H3.24805C4.17578 1.33594 4.99609 1.54102 5.70898 1.95117C6.42188 2.36133 6.97119 2.94482 7.35693 3.70166C7.74756 4.4585 7.94531 5.32764 7.9502 6.30908V6.99023C7.9502 7.99609 7.75488 8.87744 7.36426 9.63428C6.97852 10.3911 6.42432 10.9722 5.70166 11.3774C4.98389 11.7827 4.14648 11.9902 3.18945 12H0.237793ZM1.64404 2.49316V10.8501H3.12354C4.20752 10.8501 5.0498 10.5132 5.65039 9.83936C6.25586 9.16553 6.55859 8.20605 6.55859 6.96094V6.33838C6.55859 5.12744 6.27295 4.1875 5.70166 3.51855C5.13525 2.84473 4.32959 2.50293 3.28467 2.49316H1.64404ZM9.51025 7.96436C9.51025 7.18799 9.66162 6.48975 9.96436 5.86963C10.272 5.24951 10.6968 4.771 11.2388 4.43408C11.7856 4.09717 12.4082 3.92871 13.1064 3.92871C14.1855 3.92871 15.0571 4.30225 15.7212 5.04932C16.3901 5.79639 16.7246 6.79004 16.7246 8.03027V8.12549C16.7246 8.89697 16.5757 9.59033 16.2778 10.2056C15.9849 10.8159 15.5625 11.292 15.0107 11.6338C14.4639 11.9756 13.834 12.1465 13.1211 12.1465C12.0469 12.1465 11.1753 11.7729 10.5063 11.0259C9.84229 10.2788 9.51025 9.29004 9.51025 8.05957V7.96436ZM10.8726 8.12549C10.8726 9.00439 11.0752 9.70996 11.4805 10.2422C11.8906 10.7744 12.4375 11.0405 13.1211 11.0405C13.8096 11.0405 14.3564 10.772 14.7617 10.2349C15.167 9.69287 15.3696 8.93604 15.3696 7.96436C15.3696 7.09521 15.1621 6.39209 14.7471 5.85498C14.3369 5.31299 13.79 5.04199 13.1064 5.04199C12.4375 5.04199 11.8979 5.30811 11.4878 5.84033C11.0776 6.37256 10.8726 7.13428 10.8726 8.12549ZM19.7056 4.0752L19.7495 5.07129C20.355 4.30957 21.146 3.92871 22.1226 3.92871C23.7974 3.92871 24.6421 4.87354 24.6567 6.76318V12H23.3018V6.75586C23.2969 6.18457 23.165 5.76221 22.9062 5.48877C22.6523 5.21533 22.2544 5.07861 21.7124 5.07861C21.2729 5.07861 20.8872 5.1958 20.5552 5.43018C20.2231 5.66455 19.9644 5.97217 19.7788 6.35303V12H18.4238V4.0752H19.7056ZM26.2095 4.33887L25.4404 3.81152C25.8945 3.17676 26.1289 2.50781 26.1436 1.80469V0.75H27.4839V1.70215C27.479 2.19043 27.3569 2.67871 27.1177 3.16699C26.8833 3.65039 26.5806 4.04102 26.2095 4.33887ZM30.9556 2.15625V4.0752H32.4351V5.12256H30.9556V10.0371C30.9556 10.3545 31.0215 10.5938 31.1533 10.7549C31.2852 10.9111 31.5098 10.9893 31.8271 10.9893C31.9834 10.9893 32.1982 10.96 32.4717 10.9014V12C32.1152 12.0977 31.7686 12.1465 31.4316 12.1465C30.8262 12.1465 30.3696 11.9634 30.062 11.5972C29.7544 11.231 29.6006 10.7109 29.6006 10.0371V5.12256H28.1577V4.0752H29.6006V2.15625H30.9556ZM39.1001 5.03467C39.7007 4.29736 40.4819 3.92871 41.4438 3.92871C43.1187 3.92871 43.9634 4.87354 43.978 6.76318V12H42.623V6.75586C42.6182 6.18457 42.4863 5.76221 42.2275 5.48877C41.9736 5.21533 41.5757 5.07861 41.0337 5.07861C40.5942 5.07861 40.2085 5.1958 39.8765 5.43018C39.5444 5.66455 39.2856 5.97217 39.1001 6.35303V12H37.7451V0.75H39.1001V5.03467ZM50.8994 12C50.8213 11.8438 50.7578 11.5654 50.709 11.165C50.0791 11.8193 49.3271 12.1465 48.4531 12.1465C47.6719 12.1465 47.0298 11.9268 46.5269 11.4873C46.0288 11.043 45.7798 10.4814 45.7798 9.80273C45.7798 8.97754 46.0923 8.33789 46.7173 7.88379C47.3472 7.4248 48.231 7.19531 49.3687 7.19531H50.687V6.57275C50.687 6.09912 50.5454 5.72314 50.2622 5.44482C49.979 5.16162 49.5615 5.02002 49.0098 5.02002C48.5264 5.02002 48.1211 5.14209 47.7939 5.38623C47.4668 5.63037 47.3032 5.92578 47.3032 6.27246H45.9409C45.9409 5.87695 46.0801 5.49609 46.3584 5.12988C46.6416 4.75879 47.0225 4.46582 47.501 4.25098C47.9844 4.03613 48.5142 3.92871 49.0903 3.92871C50.0034 3.92871 50.7188 4.1582 51.2363 4.61719C51.7539 5.07129 52.0225 5.69873 52.042 6.49951V10.147C52.042 10.8745 52.1348 11.4531 52.3203 11.8828V12H50.8994ZM48.6509 10.9673C49.0757 10.9673 49.4785 10.8574 49.8594 10.6377C50.2402 10.418 50.5161 10.1323 50.687 9.78076V8.15479H49.625C47.9648 8.15479 47.1348 8.64062 47.1348 9.6123C47.1348 10.0371 47.2764 10.3691 47.5596 10.6084C47.8428 10.8477 48.2065 10.9673 48.6509 10.9673ZM56.6636 10.1616L58.6265 4.0752H60.0107L57.1689 12H56.1362L53.2651 4.0752H54.6494L56.6636 10.1616ZM64.5005 12.1465C63.4263 12.1465 62.5522 11.7949 61.8784 11.0918C61.2046 10.3838 60.8677 9.43896 60.8677 8.25732V8.0083C60.8677 7.22217 61.0166 6.52148 61.3145 5.90625C61.6172 5.28613 62.0371 4.80273 62.5742 4.45605C63.1162 4.10449 63.7021 3.92871 64.332 3.92871C65.3623 3.92871 66.1631 4.26807 66.7344 4.94678C67.3057 5.62549 67.5913 6.59717 67.5913 7.86182V8.42578H62.2227C62.2422 9.20703 62.4692 9.83936 62.9038 10.3228C63.3433 10.8013 63.8999 11.0405 64.5737 11.0405C65.0522 11.0405 65.4575 10.9429 65.7896 10.7476C66.1216 10.5522 66.4121 10.2935 66.6611 9.97119L67.4888 10.6157C66.8247 11.6362 65.8286 12.1465 64.5005 12.1465ZM64.332 5.04199C63.7852 5.04199 63.3262 5.24219 62.9551 5.64258C62.584 6.03809 62.3545 6.59473 62.2666 7.3125H66.2363V7.20996C66.1973 6.52148 66.0117 5.98926 65.6797 5.61328C65.3477 5.23242 64.8984 5.04199 64.332 5.04199ZM77.7793 12C77.7012 11.8438 77.6377 11.5654 77.5889 11.165C76.959 11.8193 76.207 12.1465 75.333 12.1465C74.5518 12.1465 73.9097 11.9268 73.4067 11.4873C72.9087 11.043 72.6597 10.4814 72.6597 9.80273C72.6597 8.97754 72.9722 8.33789 73.5972 7.88379C74.2271 7.4248 75.1108 7.19531 76.2485 7.19531H77.5669V6.57275C77.5669 6.09912 77.4253 5.72314 77.1421 5.44482C76.8589 5.16162 76.4414 5.02002 75.8896 5.02002C75.4062 5.02002 75.001 5.14209 74.6738 5.38623C74.3467 5.63037 74.1831 5.92578 74.1831 6.27246H72.8208C72.8208 5.87695 72.96 5.49609 73.2383 5.12988C73.5215 4.75879 73.9023 4.46582 74.3809 4.25098C74.8643 4.03613 75.394 3.92871 75.9702 3.92871C76.8833 3.92871 77.5986 4.1582 78.1162 4.61719C78.6338 5.07129 78.9023 5.69873 78.9219 6.49951V10.147C78.9219 10.8745 79.0146 11.4531 79.2002 11.8828V12H77.7793ZM75.5308 10.9673C75.9556 10.9673 76.3584 10.8574 76.7393 10.6377C77.1201 10.418 77.396 10.1323 77.5669 9.78076V8.15479H76.5049C74.8447 8.15479 74.0146 8.64062 74.0146 9.6123C74.0146 10.0371 74.1562 10.3691 74.4395 10.6084C74.7227 10.8477 75.0864 10.9673 75.5308 10.9673ZM82.3276 4.0752L82.3716 5.07129C82.9771 4.30957 83.7681 3.92871 84.7446 3.92871C86.4194 3.92871 87.2642 4.87354 87.2788 6.76318V12H85.9238V6.75586C85.9189 6.18457 85.7871 5.76221 85.5283 5.48877C85.2744 5.21533 84.8765 5.07861 84.3345 5.07861C83.895 5.07861 83.5093 5.1958 83.1772 5.43018C82.8452 5.66455 82.5864 5.97217 82.4009 6.35303V12H81.0459V4.0752H82.3276ZM97.9355 12C97.8574 11.8438 97.7939 11.5654 97.7451 11.165C97.1152 11.8193 96.3633 12.1465 95.4893 12.1465C94.708 12.1465 94.0659 11.9268 93.563 11.4873C93.0649 11.043 92.8159 10.4814 92.8159 9.80273C92.8159 8.97754 93.1284 8.33789 93.7534 7.88379C94.3833 7.4248 95.2671 7.19531 96.4048 7.19531H97.7231V6.57275C97.7231 6.09912 97.5815 5.72314 97.2983 5.44482C97.0151 5.16162 96.5977 5.02002 96.0459 5.02002C95.5625 5.02002 95.1572 5.14209 94.8301 5.38623C94.5029 5.63037 94.3394 5.92578 94.3394 6.27246H92.9771C92.9771 5.87695 93.1162 5.49609 93.3945 5.12988C93.6777 4.75879 94.0586 4.46582 94.5371 4.25098C95.0205 4.03613 95.5503 3.92871 96.1265 3.92871C97.0396 3.92871 97.7549 4.1582 98.2725 4.61719C98.79 5.07129 99.0586 5.69873 99.0781 6.49951V10.147C99.0781 10.8745 99.1709 11.4531 99.3564 11.8828V12H97.9355ZM95.687 10.9673C96.1118 10.9673 96.5146 10.8574 96.8955 10.6377C97.2764 10.418 97.5522 10.1323 97.7231 9.78076V8.15479H96.6611C95.001 8.15479 94.1709 8.64062 94.1709 9.6123C94.1709 10.0371 94.3125 10.3691 94.5957 10.6084C94.8789 10.8477 95.2427 10.9673 95.687 10.9673ZM104.381 11.0405C104.864 11.0405 105.287 10.894 105.648 10.6011C106.009 10.3081 106.209 9.94189 106.249 9.50244H107.53C107.506 9.95654 107.35 10.3887 107.062 10.7988C106.773 11.209 106.388 11.5361 105.904 11.7803C105.426 12.0244 104.918 12.1465 104.381 12.1465C103.302 12.1465 102.442 11.7876 101.803 11.0698C101.168 10.3472 100.851 9.36084 100.851 8.11084V7.88379C100.851 7.1123 100.992 6.42627 101.275 5.82568C101.559 5.2251 101.964 4.75879 102.491 4.42676C103.023 4.09473 103.651 3.92871 104.374 3.92871C105.262 3.92871 106 4.19482 106.585 4.72705C107.176 5.25928 107.491 5.9502 107.53 6.7998H106.249C106.209 6.28711 106.014 5.86719 105.663 5.54004C105.316 5.20801 104.886 5.04199 104.374 5.04199C103.685 5.04199 103.15 5.29102 102.77 5.78906C102.394 6.28223 102.206 6.99756 102.206 7.93506V8.19141C102.206 9.10449 102.394 9.80762 102.77 10.3008C103.146 10.7939 103.683 11.0405 104.381 11.0405ZM112.232 11.0405C112.716 11.0405 113.138 10.894 113.5 10.6011C113.861 10.3081 114.061 9.94189 114.1 9.50244H115.382C115.357 9.95654 115.201 10.3887 114.913 10.7988C114.625 11.209 114.239 11.5361 113.756 11.7803C113.277 12.0244 112.77 12.1465 112.232 12.1465C111.153 12.1465 110.294 11.7876 109.654 11.0698C109.02 10.3472 108.702 9.36084 108.702 8.11084V7.88379C108.702 7.1123 108.844 6.42627 109.127 5.82568C109.41 5.2251 109.815 4.75879 110.343 4.42676C110.875 4.09473 111.502 3.92871 112.225 3.92871C113.114 3.92871 113.851 4.19482 114.437 4.72705C115.028 5.25928 115.343 5.9502 115.382 6.7998H114.1C114.061 6.28711 113.866 5.86719 113.514 5.54004C113.167 5.20801 112.738 5.04199 112.225 5.04199C111.537 5.04199 111.002 5.29102 110.621 5.78906C110.245 6.28223 110.057 6.99756 110.057 7.93506V8.19141C110.057 9.10449 110.245 9.80762 110.621 10.3008C110.997 10.7939 111.534 11.0405 112.232 11.0405ZM116.546 7.96436C116.546 7.18799 116.698 6.48975 117 5.86963C117.308 5.24951 117.733 4.771 118.275 4.43408C118.822 4.09717 119.444 3.92871 120.143 3.92871C121.222 3.92871 122.093 4.30225 122.757 5.04932C123.426 5.79639 123.761 6.79004 123.761 8.03027V8.12549C123.761 8.89697 123.612 9.59033 123.314 10.2056C123.021 10.8159 122.599 11.292 122.047 11.6338C121.5 11.9756 120.87 12.1465 120.157 12.1465C119.083 12.1465 118.211 11.7729 117.542 11.0259C116.878 10.2788 116.546 9.29004 116.546 8.05957V7.96436ZM117.909 8.12549C117.909 9.00439 118.111 9.70996 118.517 10.2422C118.927 10.7744 119.474 11.0405 120.157 11.0405C120.846 11.0405 121.393 10.772 121.798 10.2349C122.203 9.69287 122.406 8.93604 122.406 7.96436C122.406 7.09521 122.198 6.39209 121.783 5.85498C121.373 5.31299 120.826 5.04199 120.143 5.04199C119.474 5.04199 118.934 5.30811 118.524 5.84033C118.114 6.37256 117.909 7.13428 117.909 8.12549ZM130.353 11.2163C129.825 11.8364 129.051 12.1465 128.031 12.1465C127.186 12.1465 126.542 11.9023 126.097 11.4141C125.658 10.9209 125.436 10.1934 125.431 9.23145V4.0752H126.786V9.19482C126.786 10.396 127.274 10.9966 128.25 10.9966C129.286 10.9966 129.974 10.6108 130.316 9.83936V4.0752H131.671V12H130.382L130.353 11.2163ZM135.018 4.0752L135.062 5.07129C135.667 4.30957 136.458 3.92871 137.435 3.92871C139.11 3.92871 139.955 4.87354 139.969 6.76318V12H138.614V6.75586C138.609 6.18457 138.478 5.76221 138.219 5.48877C137.965 5.21533 137.567 5.07861 137.025 5.07861C136.585 5.07861 136.2 5.1958 135.868 5.43018C135.536 5.66455 135.277 5.97217 135.091 6.35303V12H133.736V4.0752H135.018ZM143.851 2.15625V4.0752H145.331V5.12256H143.851V10.0371C143.851 10.3545 143.917 10.5938 144.049 10.7549C144.181 10.9111 144.405 10.9893 144.723 10.9893C144.879 10.9893 145.094 10.96 145.367 10.9014V12C145.011 12.0977 144.664 12.1465 144.327 12.1465C143.722 12.1465 143.265 11.9634 142.958 11.5972C142.65 11.231 142.496 10.7109 142.496 10.0371V5.12256H141.053V4.0752H142.496V2.15625H143.851ZM146.876 14.124L146.107 13.5967C146.566 12.957 146.805 12.2979 146.825 11.6191V10.396H148.15V11.458C148.15 11.9512 148.028 12.4443 147.784 12.9375C147.545 13.4307 147.242 13.8262 146.876 14.124ZM209.71 4.0752L209.754 5.07129C210.36 4.30957 211.151 3.92871 212.127 3.92871C213.802 3.92871 214.647 4.87354 214.662 6.76318V12H213.307V6.75586C213.302 6.18457 213.17 5.76221 212.911 5.48877C212.657 5.21533 212.259 5.07861 211.717 5.07861C211.278 5.07861 210.892 5.1958 210.56 5.43018C210.228 5.66455 209.969 5.97217 209.784 6.35303V12H208.429V4.0752H209.71ZM216.346 7.96436C216.346 7.18799 216.498 6.48975 216.8 5.86963C217.108 5.24951 217.533 4.771 218.075 4.43408C218.622 4.09717 219.244 3.92871 219.942 3.92871C221.021 3.92871 221.893 4.30225 222.557 5.04932C223.226 5.79639 223.561 6.79004 223.561 8.03027V8.12549C223.561 8.89697 223.412 9.59033 223.114 10.2056C222.821 10.8159 222.398 11.292 221.847 11.6338C221.3 11.9756 220.67 12.1465 219.957 12.1465C218.883 12.1465 218.011 11.7729 217.342 11.0259C216.678 10.2788 216.346 9.29004 216.346 8.05957V7.96436ZM217.708 8.12549C217.708 9.00439 217.911 9.70996 218.316 10.2422C218.727 10.7744 219.273 11.0405 219.957 11.0405C220.646 11.0405 221.192 10.772 221.598 10.2349C222.003 9.69287 222.206 8.93604 222.206 7.96436C222.206 7.09521 221.998 6.39209 221.583 5.85498C221.173 5.31299 220.626 5.04199 219.942 5.04199C219.273 5.04199 218.734 5.30811 218.324 5.84033C217.914 6.37256 217.708 7.13428 217.708 8.12549ZM232.276 10.1323L233.8 4.0752H235.155L232.848 12H231.749L229.823 5.99414L227.948 12H226.849L224.549 4.0752H225.897L227.457 10.0078L229.303 4.0752H230.394L232.276 10.1323ZM235.66 11.2896C235.66 11.0552 235.729 10.8599 235.865 10.7036C236.007 10.5474 236.217 10.4692 236.495 10.4692C236.773 10.4692 236.983 10.5474 237.125 10.7036C237.271 10.8599 237.345 11.0552 237.345 11.2896C237.345 11.5142 237.271 11.7021 237.125 11.8535C236.983 12.0049 236.773 12.0806 236.495 12.0806C236.217 12.0806 236.007 12.0049 235.865 11.8535C235.729 11.7021 235.66 11.5142 235.66 11.2896Z" fill="#969696"/>
<path d="M156.939 7.24658C155.733 6.8999 154.854 6.4751 154.303 5.97217C153.756 5.46436 153.482 4.83936 153.482 4.09717C153.482 3.25732 153.817 2.56396 154.486 2.01709C155.16 1.46533 156.034 1.18945 157.108 1.18945C157.84 1.18945 158.492 1.33105 159.063 1.61426C159.64 1.89746 160.084 2.28809 160.396 2.78613C160.714 3.28418 160.873 3.82861 160.873 4.41943H159.459C159.459 3.7749 159.254 3.26953 158.844 2.90332C158.434 2.53223 157.855 2.34668 157.108 2.34668C156.415 2.34668 155.873 2.50049 155.482 2.80811C155.096 3.11084 154.903 3.5332 154.903 4.0752C154.903 4.50977 155.086 4.87842 155.453 5.18115C155.824 5.479 156.451 5.75244 157.335 6.00146C158.224 6.25049 158.917 6.52637 159.415 6.8291C159.918 7.12695 160.289 7.47607 160.528 7.87646C160.772 8.27686 160.895 8.74805 160.895 9.29004C160.895 10.1543 160.558 10.8477 159.884 11.3701C159.21 11.8877 158.309 12.1465 157.181 12.1465C156.449 12.1465 155.765 12.0073 155.13 11.729C154.496 11.4458 154.005 11.0601 153.658 10.5718C153.316 10.0835 153.146 9.5293 153.146 8.90918H154.559C154.559 9.55371 154.796 10.064 155.27 10.4399C155.748 10.811 156.385 10.9966 157.181 10.9966C157.923 10.9966 158.492 10.8452 158.888 10.5425C159.283 10.2397 159.481 9.82715 159.481 9.30469C159.481 8.78223 159.298 8.37939 158.932 8.09619C158.565 7.80811 157.901 7.5249 156.939 7.24658ZM163.963 12H162.608V4.0752H163.963V12ZM162.499 1.97314C162.499 1.75342 162.564 1.56787 162.696 1.4165C162.833 1.26514 163.033 1.18945 163.297 1.18945C163.561 1.18945 163.761 1.26514 163.897 1.4165C164.034 1.56787 164.103 1.75342 164.103 1.97314C164.103 2.19287 164.034 2.37598 163.897 2.52246C163.761 2.66895 163.561 2.74219 163.297 2.74219C163.033 2.74219 162.833 2.66895 162.696 2.52246C162.564 2.37598 162.499 2.19287 162.499 1.97314ZM165.816 7.97168C165.816 6.73633 166.102 5.75488 166.673 5.02734C167.245 4.29492 168.001 3.92871 168.944 3.92871C169.911 3.92871 170.665 4.27051 171.207 4.9541L171.273 4.0752H172.511V11.8096C172.511 12.835 172.206 13.6431 171.595 14.2339C170.99 14.8247 170.174 15.1201 169.149 15.1201C168.578 15.1201 168.019 14.998 167.472 14.7539C166.925 14.5098 166.507 14.1753 166.219 13.7505L166.922 12.9375C167.503 13.6553 168.214 14.0142 169.054 14.0142C169.713 14.0142 170.226 13.8286 170.592 13.4575C170.963 13.0864 171.148 12.564 171.148 11.8901V11.209C170.606 11.834 169.867 12.1465 168.929 12.1465C168.001 12.1465 167.25 11.7729 166.673 11.0259C166.102 10.2788 165.816 9.26074 165.816 7.97168ZM167.179 8.12549C167.179 9.01904 167.362 9.72217 167.728 10.2349C168.094 10.7427 168.607 10.9966 169.266 10.9966C170.121 10.9966 170.748 10.6084 171.148 9.83203V6.21387C170.733 5.45703 170.111 5.07861 169.281 5.07861C168.622 5.07861 168.106 5.33496 167.735 5.84766C167.364 6.36035 167.179 7.11963 167.179 8.12549ZM175.843 4.0752L175.887 5.07129C176.493 4.30957 177.284 3.92871 178.26 3.92871C179.935 3.92871 180.78 4.87354 180.794 6.76318V12H179.439V6.75586C179.435 6.18457 179.303 5.76221 179.044 5.48877C178.79 5.21533 178.392 5.07861 177.85 5.07861C177.411 5.07861 177.025 5.1958 176.693 5.43018C176.361 5.66455 176.102 5.97217 175.917 6.35303V12H174.562V4.0752H175.843ZM194.278 1.33594V8.58691C194.273 9.59277 193.956 10.4155 193.326 11.0552C192.701 11.6948 191.852 12.0537 190.777 12.1318L190.404 12.1465C189.237 12.1465 188.307 11.8315 187.613 11.2017C186.92 10.5718 186.568 9.70508 186.559 8.60156V1.33594H187.95V8.55762C187.95 9.3291 188.163 9.92969 188.587 10.3594C189.012 10.7842 189.618 10.9966 190.404 10.9966C191.2 10.9966 191.808 10.7842 192.228 10.3594C192.652 9.93457 192.865 9.33643 192.865 8.56494V1.33594H194.278ZM202.979 8.12549C202.979 9.33154 202.704 10.3032 202.152 11.0405C201.6 11.7778 200.853 12.1465 199.911 12.1465C198.949 12.1465 198.192 11.8413 197.64 11.231V15.0469H196.285V4.0752H197.523L197.589 4.9541C198.141 4.27051 198.907 3.92871 199.889 3.92871C200.841 3.92871 201.593 4.2876 202.145 5.00537C202.701 5.72314 202.979 6.72168 202.979 8.00098V8.12549ZM201.625 7.97168C201.625 7.07812 201.434 6.37256 201.053 5.85498C200.672 5.3374 200.15 5.07861 199.486 5.07861C198.666 5.07861 198.05 5.44238 197.64 6.16992V9.95654C198.045 10.6792 198.666 11.0405 199.5 11.0405C200.15 11.0405 200.665 10.7842 201.046 10.2715C201.432 9.75391 201.625 8.9873 201.625 7.97168Z" fill="#323232"/>
</svg>
