<svg width="101" height="13" viewBox="0 0 101 13" fill="none" xmlns="http://www.w3.org/2000/svg">
<path d="M1.46631 10V4.03955H0.380859V3.13184H1.46631V2.42725C1.46631 1.69092 1.66309 1.12174 2.05664 0.719727C2.4502 0.317708 3.00667 0.116699 3.72607 0.116699C3.99691 0.116699 4.26562 0.152669 4.53223 0.224609L4.46875 1.17676C4.26986 1.13867 4.05827 1.11963 3.83398 1.11963C3.45312 1.11963 3.15902 1.23177 2.95166 1.45605C2.7443 1.67611 2.64062 1.99349 2.64062 2.4082V3.13184H4.10693V4.03955H2.64062V10H1.46631ZM5.09717 6.50244C5.09717 5.82959 5.22835 5.22445 5.49072 4.68701C5.75732 4.14958 6.12549 3.73486 6.59521 3.44287C7.06917 3.15088 7.60872 3.00488 8.21387 3.00488C9.14909 3.00488 9.90446 3.32861 10.48 3.97607C11.0597 4.62354 11.3496 5.4847 11.3496 6.55957V6.64209C11.3496 7.31071 11.2205 7.91162 10.9624 8.44482C10.7085 8.9738 10.3424 9.38639 9.86426 9.68262C9.3903 9.97884 8.8444 10.127 8.22656 10.127C7.29557 10.127 6.5402 9.80322 5.96045 9.15576C5.38493 8.5083 5.09717 7.65137 5.09717 6.58496V6.50244ZM6.27783 6.64209C6.27783 7.40381 6.45345 8.0153 6.80469 8.47656C7.16016 8.93783 7.63411 9.16846 8.22656 9.16846C8.82324 9.16846 9.2972 8.93571 9.64844 8.47021C9.99967 8.00049 10.1753 7.34456 10.1753 6.50244C10.1753 5.74919 9.99544 5.13981 9.63574 4.67432C9.28027 4.20459 8.80632 3.96973 8.21387 3.96973C7.63411 3.96973 7.1665 4.20036 6.81104 4.66162C6.45557 5.12288 6.27783 5.78304 6.27783 6.64209ZM16.1421 4.18555C15.9644 4.15592 15.7718 4.14111 15.5645 4.14111C14.7943 4.14111 14.2716 4.46908 13.9966 5.125V10H12.8223V3.13184H13.9648L13.9839 3.92529C14.369 3.31169 14.9149 3.00488 15.6216 3.00488C15.8501 3.00488 16.0236 3.03451 16.1421 3.09375V4.18555ZM16.8213 6.50879C16.8213 5.43815 17.0688 4.58757 17.564 3.95703C18.0591 3.32227 18.715 3.00488 19.5317 3.00488C20.3696 3.00488 21.0234 3.30111 21.4932 3.89355L21.5503 3.13184H22.623V9.83496C22.623 10.7236 22.3586 11.424 21.8296 11.936C21.3049 12.4481 20.5981 12.7041 19.7095 12.7041C19.2144 12.7041 18.7298 12.5983 18.2559 12.3867C17.7819 12.1751 17.4201 11.8853 17.1704 11.5171L17.7798 10.8125C18.2834 11.4346 18.8991 11.7456 19.627 11.7456C20.1982 11.7456 20.6426 11.5848 20.96 11.2632C21.2816 10.9416 21.4424 10.4888 21.4424 9.90479V9.31445C20.9727 9.85612 20.3315 10.127 19.519 10.127C18.715 10.127 18.0633 9.80322 17.564 9.15576C17.0688 8.5083 16.8213 7.62598 16.8213 6.50879ZM18.002 6.64209C18.002 7.4165 18.1606 8.02588 18.478 8.47021C18.7954 8.91032 19.2397 9.13037 19.811 9.13037C20.5516 9.13037 21.0954 8.79395 21.4424 8.12109V4.98535C21.0827 4.32943 20.5431 4.00146 19.8237 4.00146C19.2524 4.00146 18.806 4.22363 18.4844 4.66797C18.1628 5.1123 18.002 5.77035 18.002 6.64209ZM24.0894 6.50244C24.0894 5.82959 24.2205 5.22445 24.4829 4.68701C24.7495 4.14958 25.1177 3.73486 25.5874 3.44287C26.0614 3.15088 26.6009 3.00488 27.2061 3.00488C28.1413 3.00488 28.8966 3.32861 29.4722 3.97607C30.0519 4.62354 30.3418 5.4847 30.3418 6.55957V6.64209C30.3418 7.31071 30.2127 7.91162 29.9546 8.44482C29.7007 8.9738 29.3346 9.38639 28.8564 9.68262C28.3825 9.97884 27.8366 10.127 27.2188 10.127C26.2878 10.127 25.5324 9.80322 24.9526 9.15576C24.3771 8.5083 24.0894 7.65137 24.0894 6.58496V6.50244ZM25.27 6.64209C25.27 7.40381 25.4456 8.0153 25.7969 8.47656C26.1523 8.93783 26.6263 9.16846 27.2188 9.16846C27.8154 9.16846 28.2894 8.93571 28.6406 8.47021C28.9919 8.00049 29.1675 7.34456 29.1675 6.50244C29.1675 5.74919 28.9876 5.13981 28.6279 4.67432C28.2725 4.20459 27.7985 3.96973 27.2061 3.96973C26.6263 3.96973 26.1587 4.20036 25.8032 4.66162C25.4478 5.12288 25.27 5.78304 25.27 6.64209ZM33.4077 1.46875V3.13184H34.6899V4.03955H33.4077V8.29883C33.4077 8.57389 33.4648 8.78125 33.5791 8.9209C33.6934 9.05632 33.888 9.12402 34.1631 9.12402C34.2985 9.12402 34.4847 9.09863 34.7217 9.04785V10C34.4128 10.0846 34.1123 10.127 33.8203 10.127C33.2956 10.127 32.8999 9.96826 32.6333 9.65088C32.3667 9.3335 32.2334 8.88281 32.2334 8.29883V4.03955H30.9829V3.13184H32.2334V1.46875H33.4077ZM45.0938 6.64209C45.0938 7.68734 44.8547 8.52946 44.3765 9.16846C43.8983 9.80745 43.2508 10.127 42.4341 10.127C41.6004 10.127 40.9445 9.86247 40.4663 9.3335V12.6406H39.292V3.13184H40.3647L40.4219 3.89355C40.9001 3.30111 41.5645 3.00488 42.415 3.00488C43.2402 3.00488 43.8919 3.31592 44.3701 3.93799C44.8525 4.56006 45.0938 5.42546 45.0938 6.53418V6.64209ZM43.9194 6.50879C43.9194 5.73438 43.7544 5.12288 43.4243 4.67432C43.0942 4.22575 42.6414 4.00146 42.0659 4.00146C41.355 4.00146 40.8218 4.31673 40.4663 4.94727V8.229C40.8175 8.85531 41.355 9.16846 42.0786 9.16846C42.6414 9.16846 43.0879 8.94629 43.418 8.50195C43.7523 8.05339 43.9194 7.389 43.9194 6.50879ZM50.832 10C50.7643 9.86458 50.7093 9.62337 50.667 9.27637C50.1211 9.84342 49.4694 10.127 48.7119 10.127C48.0348 10.127 47.4784 9.93652 47.0425 9.55566C46.6108 9.17057 46.395 8.68392 46.395 8.0957C46.395 7.38053 46.6659 6.82617 47.2075 6.43262C47.7534 6.03483 48.5194 5.83594 49.5054 5.83594H50.6479V5.29639C50.6479 4.8859 50.5252 4.56006 50.2798 4.31885C50.0343 4.0734 49.6725 3.95068 49.1943 3.95068C48.7754 3.95068 48.4242 4.05648 48.1406 4.26807C47.8571 4.47965 47.7153 4.73568 47.7153 5.03613H46.5347C46.5347 4.69336 46.6553 4.36328 46.8965 4.0459C47.1419 3.72428 47.472 3.47038 47.8867 3.28418C48.3057 3.09798 48.7648 3.00488 49.2642 3.00488C50.0555 3.00488 50.6755 3.20378 51.124 3.60156C51.5726 3.99512 51.8053 4.5389 51.8223 5.23291V8.39404C51.8223 9.02458 51.9027 9.52604 52.0635 9.89844V10H50.832ZM48.8833 9.10498C49.2515 9.10498 49.6006 9.00977 49.9307 8.81934C50.2607 8.62891 50.4998 8.38135 50.6479 8.07666V6.66748H49.7275C48.2887 6.66748 47.5693 7.08854 47.5693 7.93066C47.5693 8.29883 47.6921 8.58659 47.9375 8.79395C48.1829 9.0013 48.4982 9.10498 48.8833 9.10498ZM57.6621 8.17822C57.6621 7.86084 57.5415 7.6154 57.3003 7.44189C57.0633 7.26416 56.6465 7.11182 56.0498 6.98486C55.4574 6.85791 54.9855 6.70557 54.6343 6.52783C54.2873 6.3501 54.0291 6.13851 53.8599 5.89307C53.6948 5.64762 53.6123 5.35563 53.6123 5.01709C53.6123 4.45426 53.8493 3.97819 54.3232 3.58887C54.8014 3.19954 55.4108 3.00488 56.1514 3.00488C56.93 3.00488 57.5605 3.20589 58.043 3.60791C58.5296 4.00993 58.7729 4.52409 58.7729 5.15039H57.5923C57.5923 4.82878 57.4548 4.5516 57.1797 4.31885C56.9089 4.0861 56.5661 3.96973 56.1514 3.96973C55.724 3.96973 55.3896 4.06283 55.1484 4.24902C54.9072 4.43522 54.7866 4.67855 54.7866 4.979C54.7866 5.26253 54.8988 5.47624 55.123 5.62012C55.3473 5.764 55.7515 5.90153 56.3354 6.03271C56.9237 6.1639 57.3997 6.32048 57.7637 6.50244C58.1276 6.68441 58.3963 6.90446 58.5698 7.1626C58.7476 7.4165 58.8364 7.72754 58.8364 8.0957C58.8364 8.70931 58.591 9.20231 58.1001 9.57471C57.6092 9.94287 56.9723 10.127 56.1895 10.127C55.6393 10.127 55.1527 10.0296 54.7295 9.83496C54.3063 9.6403 53.9741 9.36947 53.7329 9.02246C53.4959 8.67122 53.3774 8.29248 53.3774 7.88623H54.5518C54.5729 8.27979 54.7295 8.59294 55.0215 8.82568C55.3177 9.0542 55.707 9.16846 56.1895 9.16846C56.6338 9.16846 56.9893 9.07959 57.2559 8.90186C57.5267 8.71989 57.6621 8.47868 57.6621 8.17822ZM64.3652 8.17822C64.3652 7.86084 64.2446 7.6154 64.0034 7.44189C63.7664 7.26416 63.3496 7.11182 62.7529 6.98486C62.1605 6.85791 61.6886 6.70557 61.3374 6.52783C60.9904 6.3501 60.7323 6.13851 60.563 5.89307C60.3979 5.64762 60.3154 5.35563 60.3154 5.01709C60.3154 4.45426 60.5524 3.97819 61.0264 3.58887C61.5046 3.19954 62.1139 3.00488 62.8545 3.00488C63.6331 3.00488 64.2637 3.20589 64.7461 3.60791C65.2327 4.00993 65.4761 4.52409 65.4761 5.15039H64.2954C64.2954 4.82878 64.1579 4.5516 63.8828 4.31885C63.612 4.0861 63.2692 3.96973 62.8545 3.96973C62.4271 3.96973 62.0928 4.06283 61.8516 4.24902C61.6104 4.43522 61.4897 4.67855 61.4897 4.979C61.4897 5.26253 61.6019 5.47624 61.8262 5.62012C62.0505 5.764 62.4546 5.90153 63.0386 6.03271C63.6268 6.1639 64.1029 6.32048 64.4668 6.50244C64.8307 6.68441 65.0994 6.90446 65.2729 7.1626C65.4507 7.4165 65.5396 7.72754 65.5396 8.0957C65.5396 8.70931 65.2941 9.20231 64.8032 9.57471C64.3123 9.94287 63.6755 10.127 62.8926 10.127C62.3424 10.127 61.8558 10.0296 61.4326 9.83496C61.0094 9.6403 60.6772 9.36947 60.436 9.02246C60.1991 8.67122 60.0806 8.29248 60.0806 7.88623H61.2549C61.276 8.27979 61.4326 8.59294 61.7246 8.82568C62.0208 9.0542 62.4102 9.16846 62.8926 9.16846C63.3369 9.16846 63.6924 9.07959 63.959 8.90186C64.2298 8.71989 64.3652 8.47868 64.3652 8.17822ZM73.1504 8.38135L74.4707 3.13184H75.645L73.6455 10H72.6934L71.0239 4.79492L69.3989 10H68.4468L66.4536 3.13184H67.6216L68.9736 8.27344L70.5732 3.13184H71.519L73.1504 8.38135ZM76.5337 6.50244C76.5337 5.82959 76.6649 5.22445 76.9272 4.68701C77.1938 4.14958 77.562 3.73486 78.0317 3.44287C78.5057 3.15088 79.0452 3.00488 79.6504 3.00488C80.5856 3.00488 81.341 3.32861 81.9165 3.97607C82.4963 4.62354 82.7861 5.4847 82.7861 6.55957V6.64209C82.7861 7.31071 82.6571 7.91162 82.3989 8.44482C82.145 8.9738 81.779 9.38639 81.3008 9.68262C80.8268 9.97884 80.2809 10.127 79.6631 10.127C78.7321 10.127 77.9767 9.80322 77.397 9.15576C76.8215 8.5083 76.5337 7.65137 76.5337 6.58496V6.50244ZM77.7144 6.64209C77.7144 7.40381 77.89 8.0153 78.2412 8.47656C78.5967 8.93783 79.0706 9.16846 79.6631 9.16846C80.2598 9.16846 80.7337 8.93571 81.085 8.47021C81.4362 8.00049 81.6118 7.34456 81.6118 6.50244C81.6118 5.74919 81.432 5.13981 81.0723 4.67432C80.7168 4.20459 80.2428 3.96973 79.6504 3.96973C79.0706 3.96973 78.603 4.20036 78.2476 4.66162C77.8921 5.12288 77.7144 5.78304 77.7144 6.64209ZM87.5786 4.18555C87.4009 4.15592 87.2083 4.14111 87.001 4.14111C86.2308 4.14111 85.7082 4.46908 85.4331 5.125V10H84.2588V3.13184H85.4014L85.4204 3.92529C85.8055 3.31169 86.3514 3.00488 87.0581 3.00488C87.2866 3.00488 87.4601 3.03451 87.5786 3.09375V4.18555ZM88.2515 6.50879C88.2515 5.45508 88.5011 4.60872 89.0005 3.96973C89.4998 3.3265 90.1536 3.00488 90.9619 3.00488C91.766 3.00488 92.4028 3.27995 92.8726 3.83008V0.25H94.0469V10H92.9678L92.9106 9.26367C92.4409 9.83919 91.7871 10.127 90.9492 10.127C90.1536 10.127 89.5041 9.80111 89.0005 9.14941C88.5011 8.49772 88.2515 7.64714 88.2515 6.59766V6.50879ZM89.4258 6.64209C89.4258 7.42074 89.5866 8.03011 89.9082 8.47021C90.2298 8.91032 90.6742 9.13037 91.2412 9.13037C91.986 9.13037 92.5298 8.79606 92.8726 8.12744V4.97266C92.5213 4.3252 91.9818 4.00146 91.2539 4.00146C90.6784 4.00146 90.2298 4.22363 89.9082 4.66797C89.5866 5.1123 89.4258 5.77035 89.4258 6.64209ZM97.2524 7.39746C97.2609 6.89388 97.318 6.49609 97.4238 6.2041C97.5296 5.91211 97.7454 5.58838 98.0713 5.23291L98.9028 4.37598C99.2583 3.97396 99.436 3.54232 99.436 3.08105C99.436 2.63672 99.3197 2.28971 99.0869 2.04004C98.8542 1.78613 98.5156 1.65918 98.0713 1.65918C97.6396 1.65918 97.2926 1.77344 97.0303 2.00195C96.7679 2.23047 96.6367 2.53727 96.6367 2.92236H95.4624C95.4709 2.23682 95.7142 1.68457 96.1924 1.26562C96.6748 0.842448 97.3011 0.630859 98.0713 0.630859C98.8711 0.630859 99.4932 0.84668 99.9375 1.27832C100.386 1.70573 100.61 2.29395 100.61 3.04297C100.61 3.78353 100.268 4.51351 99.582 5.23291L98.8901 5.91846C98.5812 6.26123 98.4268 6.75423 98.4268 7.39746H97.2524ZM97.2017 9.40967C97.2017 9.21924 97.2588 9.06055 97.373 8.93359C97.4915 8.80241 97.665 8.73682 97.8936 8.73682C98.1221 8.73682 98.2956 8.80241 98.4141 8.93359C98.5326 9.06055 98.5918 9.21924 98.5918 9.40967C98.5918 9.6001 98.5326 9.75879 98.4141 9.88574C98.2956 10.0085 98.1221 10.0698 97.8936 10.0698C97.665 10.0698 97.4915 10.0085 97.373 9.88574C97.2588 9.75879 97.2017 9.6001 97.2017 9.40967Z" fill="black"/>
</svg>
