<svg width="78" height="31" viewBox="0 0 78 31" fill="none" xmlns="http://www.w3.org/2000/svg">
<path d="M4.26562 20.8438H14.5938V24H0.3125V1.25H4.26562V20.8438ZM16.9569 15.3906C16.9569 13.7344 17.285 12.2448 17.9412 10.9219C18.5975 9.58854 19.5194 8.56771 20.7069 7.85938C21.8944 7.14062 23.259 6.78125 24.8006 6.78125C27.0819 6.78125 28.9308 7.51562 30.3475 8.98438C31.7746 10.4531 32.5454 12.401 32.66 14.8281L32.6756 15.7188C32.6756 17.3854 32.3527 18.875 31.7069 20.1875C31.0715 21.5 30.1548 22.5156 28.9569 23.2344C27.7694 23.9531 26.3944 24.3125 24.8319 24.3125C22.4465 24.3125 20.535 23.5208 19.0975 21.9375C17.6704 20.3438 16.9569 18.224 16.9569 15.5781V15.3906ZM20.7537 15.7188C20.7537 17.4583 21.1131 18.8229 21.8319 19.8125C22.5506 20.7917 23.5506 21.2812 24.8319 21.2812C26.1131 21.2812 27.1079 20.7812 27.8162 19.7812C28.535 18.7812 28.8944 17.3177 28.8944 15.3906C28.8944 13.6823 28.5246 12.3281 27.785 11.3281C27.0558 10.3281 26.061 9.82812 24.8006 9.82812C23.561 9.82812 22.5767 10.3229 21.8475 11.3125C21.1183 12.2917 20.7537 13.7604 20.7537 15.7188ZM35.6325 15.4219C35.6325 12.7969 36.2471 10.7031 37.4762 9.14062C38.7158 7.56771 40.3565 6.78125 42.3981 6.78125C44.3252 6.78125 45.8408 7.45312 46.945 8.79688L47.1169 7.09375H50.5387V23.4844C50.5387 25.7031 49.846 27.4531 48.4606 28.7344C47.0856 30.0156 45.2262 30.6562 42.8825 30.6562C41.6429 30.6562 40.4294 30.3958 39.2419 29.875C38.0648 29.3646 37.169 28.6927 36.5544 27.8594L38.3512 25.5781C39.5179 26.9635 40.9554 27.6562 42.6637 27.6562C43.9242 27.6562 44.919 27.3125 45.6481 26.625C46.3773 25.9479 46.7419 24.9479 46.7419 23.625V22.4844C45.6481 23.7031 44.1898 24.3125 42.3669 24.3125C40.3877 24.3125 38.7679 23.526 37.5075 21.9531C36.2575 20.3802 35.6325 18.2031 35.6325 15.4219ZM39.4137 15.75C39.4137 17.4479 39.7575 18.7865 40.445 19.7656C41.1429 20.7344 42.1065 21.2188 43.3356 21.2188C44.8669 21.2188 46.0023 20.5625 46.7419 19.25V11.8125C46.0231 10.5312 44.8981 9.89062 43.3669 9.89062C42.1169 9.89062 41.1429 10.3854 40.445 11.375C39.7575 12.3646 39.4137 13.8229 39.4137 15.75ZM58.9019 24H55.105V7.09375H58.9019V24ZM54.8706 2.70312C54.8706 2.11979 55.0529 1.63542 55.4175 1.25C55.7925 0.864583 56.3237 0.671875 57.0112 0.671875C57.6987 0.671875 58.23 0.864583 58.605 1.25C58.98 1.63542 59.1675 2.11979 59.1675 2.70312C59.1675 3.27604 58.98 3.75521 58.605 4.14062C58.23 4.51562 57.6987 4.70312 57.0112 4.70312C56.3237 4.70312 55.7925 4.51562 55.4175 4.14062C55.0529 3.75521 54.8706 3.27604 54.8706 2.70312ZM66.9837 7.09375L67.0931 9.04688C68.3431 7.53646 69.9837 6.78125 72.015 6.78125C75.5358 6.78125 77.3275 8.79688 77.39 12.8281V24H73.5931V13.0469C73.5931 11.974 73.3587 11.1823 72.89 10.6719C72.4317 10.151 71.6765 9.89062 70.6244 9.89062C69.0931 9.89062 67.9525 10.5833 67.2025 11.9688V24H63.4056V7.09375H66.9837Z" fill="black"/>
</svg>
