<svg width="56" height="11" viewBox="0 0 56 11" fill="none" xmlns="http://www.w3.org/2000/svg">
<path d="M1.70847 6.38184V10H0.489716V0.757812H3.89841C4.9098 0.757812 5.70114 1.01595 6.27243 1.53223C6.84795 2.0485 7.13571 2.73193 7.13571 3.58252C7.13571 4.47965 6.8543 5.17155 6.29147 5.6582C5.73288 6.14062 4.93096 6.38184 3.88571 6.38184H1.70847ZM1.70847 5.38525H3.89841C4.5501 5.38525 5.04945 5.23291 5.39645 4.92822C5.74346 4.6193 5.91696 4.17497 5.91696 3.59521C5.91696 3.04508 5.74346 2.60498 5.39645 2.2749C5.04945 1.94482 4.57337 1.77344 3.96823 1.76074H1.70847V5.38525ZM12.6709 10C12.6032 9.86458 12.5481 9.62337 12.5058 9.27637C11.9599 9.84342 11.3082 10.127 10.5508 10.127C9.87367 10.127 9.31719 9.93652 8.88132 9.55566C8.44968 9.17057 8.23386 8.68392 8.23386 8.0957C8.23386 7.38053 8.50469 6.82617 9.04636 6.43262C9.59225 6.03483 10.3582 5.83594 11.3442 5.83594H12.4868V5.29639C12.4868 4.8859 12.3641 4.56006 12.1186 4.31885C11.8732 4.0734 11.5114 3.95068 11.0332 3.95068C10.6142 3.95068 10.263 4.05648 9.97946 4.26807C9.69593 4.47965 9.55417 4.73568 9.55417 5.03613H8.3735C8.3735 4.69336 8.49411 4.36328 8.73532 4.0459C8.98076 3.72428 9.31084 3.47038 9.72556 3.28418C10.1445 3.09798 10.6036 3.00488 11.103 3.00488C11.8943 3.00488 12.5143 3.20378 12.9629 3.60156C13.4114 3.99512 13.6442 4.5389 13.6611 5.23291V8.39404C13.6611 9.02458 13.7415 9.52604 13.9023 9.89844V10H12.6709ZM10.7221 9.10498C11.0903 9.10498 11.4394 9.00977 11.7695 8.81934C12.0996 8.62891 12.3387 8.38135 12.4868 8.07666V6.66748H11.5664C10.1276 6.66748 9.40817 7.08854 9.40817 7.93066C9.40817 8.29883 9.53089 8.58659 9.77634 8.79395C10.0218 9.0013 10.337 9.10498 10.7221 9.10498ZM19.5009 8.17822C19.5009 7.86084 19.3803 7.6154 19.1391 7.44189C18.9022 7.26416 18.4853 7.11182 17.8886 6.98486C17.2962 6.85791 16.8244 6.70557 16.4731 6.52783C16.1261 6.3501 15.868 6.13851 15.6987 5.89307C15.5337 5.64762 15.4511 5.35563 15.4511 5.01709C15.4511 4.45426 15.6881 3.97819 16.1621 3.58887C16.6403 3.19954 17.2496 3.00488 17.9902 3.00488C18.7688 3.00488 19.3994 3.20589 19.8818 3.60791C20.3685 4.00993 20.6118 4.52409 20.6118 5.15039H19.4311C19.4311 4.82878 19.2936 4.5516 19.0185 4.31885C18.7477 4.0861 18.4049 3.96973 17.9902 3.96973C17.5628 3.96973 17.2285 4.06283 16.9873 4.24902C16.7461 4.43522 16.6255 4.67855 16.6255 4.979C16.6255 5.26253 16.7376 5.47624 16.9619 5.62012C17.1862 5.764 17.5903 5.90153 18.1743 6.03271C18.7625 6.1639 19.2386 6.32048 19.6025 6.50244C19.9664 6.68441 20.2352 6.90446 20.4087 7.1626C20.5864 7.4165 20.6753 7.72754 20.6753 8.0957C20.6753 8.70931 20.4298 9.20231 19.9389 9.57471C19.448 9.94287 18.8112 10.127 18.0283 10.127C17.4782 10.127 16.9915 10.0296 16.5683 9.83496C16.1452 9.6403 15.813 9.36947 15.5717 9.02246C15.3348 8.67122 15.2163 8.29248 15.2163 7.88623H16.3906C16.4118 8.27979 16.5683 8.59294 16.8603 8.82568C17.1565 9.0542 17.5459 9.16846 18.0283 9.16846C18.4726 9.16846 18.8281 9.07959 19.0947 8.90186C19.3655 8.71989 19.5009 8.47868 19.5009 8.17822ZM26.2041 8.17822C26.2041 7.86084 26.0835 7.6154 25.8423 7.44189C25.6053 7.26416 25.1884 7.11182 24.5918 6.98486C23.9993 6.85791 23.5275 6.70557 23.1762 6.52783C22.8292 6.3501 22.5711 6.13851 22.4018 5.89307C22.2368 5.64762 22.1543 5.35563 22.1543 5.01709C22.1543 4.45426 22.3912 3.97819 22.8652 3.58887C23.3434 3.19954 23.9528 3.00488 24.6933 3.00488C25.472 3.00488 26.1025 3.20589 26.5849 3.60791C27.0716 4.00993 27.3149 4.52409 27.3149 5.15039H26.1342C26.1342 4.82878 25.9967 4.5516 25.7216 4.31885C25.4508 4.0861 25.108 3.96973 24.6933 3.96973C24.2659 3.96973 23.9316 4.06283 23.6904 4.24902C23.4492 4.43522 23.3286 4.67855 23.3286 4.979C23.3286 5.26253 23.4407 5.47624 23.665 5.62012C23.8893 5.764 24.2934 5.90153 24.8774 6.03271C25.4656 6.1639 25.9417 6.32048 26.3056 6.50244C26.6696 6.68441 26.9383 6.90446 27.1118 7.1626C27.2895 7.4165 27.3784 7.72754 27.3784 8.0957C27.3784 8.70931 27.1329 9.20231 26.6421 9.57471C26.1512 9.94287 25.5143 10.127 24.7314 10.127C24.1813 10.127 23.6946 10.0296 23.2715 9.83496C22.8483 9.6403 22.5161 9.36947 22.2749 9.02246C22.0379 8.67122 21.9194 8.29248 21.9194 7.88623H23.0937C23.1149 8.27979 23.2715 8.59294 23.5634 8.82568C23.8597 9.0542 24.249 9.16846 24.7314 9.16846C25.1758 9.16846 25.5312 9.07959 25.7978 8.90186C26.0687 8.71989 26.2041 8.47868 26.2041 8.17822ZM34.9892 8.38135L36.3095 3.13184H37.4839L35.4843 10H34.5322L32.8628 4.79492L31.2378 10H30.2856L28.2924 3.13184H29.4604L30.8125 8.27344L32.4121 3.13184H33.3579L34.9892 8.38135ZM38.3725 6.50244C38.3725 5.82959 38.5037 5.22445 38.7661 4.68701C39.0327 4.14958 39.4008 3.73486 39.8706 3.44287C40.3445 3.15088 40.8841 3.00488 41.4892 3.00488C42.4244 3.00488 43.1798 3.32861 43.7553 3.97607C44.3351 4.62354 44.625 5.4847 44.625 6.55957V6.64209C44.625 7.31071 44.4959 7.91162 44.2378 8.44482C43.9839 8.9738 43.6178 9.38639 43.1396 9.68262C42.6657 9.97884 42.1198 10.127 41.5019 10.127C40.5709 10.127 39.8156 9.80322 39.2358 9.15576C38.6603 8.5083 38.3725 7.65137 38.3725 6.58496V6.50244ZM39.5532 6.64209C39.5532 7.40381 39.7288 8.0153 40.08 8.47656C40.4355 8.93783 40.9095 9.16846 41.5019 9.16846C42.0986 9.16846 42.5726 8.93571 42.9238 8.47021C43.275 8.00049 43.4507 7.34456 43.4507 6.50244C43.4507 5.74919 43.2708 5.13981 42.9111 4.67432C42.5556 4.20459 42.0817 3.96973 41.4892 3.96973C40.9095 3.96973 40.4419 4.20036 40.0864 4.66162C39.7309 5.12288 39.5532 5.78304 39.5532 6.64209ZM49.4174 4.18555C49.2397 4.15592 49.0472 4.14111 48.8398 4.14111C48.0696 4.14111 47.547 4.46908 47.2719 5.125V10H46.0976V3.13184H47.2402L47.2592 3.92529C47.6443 3.31169 48.1902 3.00488 48.8969 3.00488C49.1255 3.00488 49.299 3.03451 49.4174 3.09375V4.18555ZM50.0903 6.50879C50.0903 5.45508 50.34 4.60872 50.8393 3.96973C51.3387 3.3265 51.9925 3.00488 52.8008 3.00488C53.6048 3.00488 54.2417 3.27995 54.7114 3.83008V0.25H55.8857V10H54.8066L54.7495 9.26367C54.2798 9.83919 53.6259 10.127 52.7881 10.127C51.9925 10.127 51.3429 9.80111 50.8393 9.14941C50.34 8.49772 50.0903 7.64714 50.0903 6.59766V6.50879ZM51.2646 6.64209C51.2646 7.42074 51.4254 8.03011 51.747 8.47021C52.0687 8.91032 52.513 9.13037 53.08 9.13037C53.8248 9.13037 54.3686 8.79606 54.7114 8.12744V4.97266C54.3602 4.3252 53.8206 4.00146 53.0927 4.00146C52.5172 4.00146 52.0687 4.22363 51.747 4.66797C51.4254 5.1123 51.2646 5.77035 51.2646 6.64209Z" fill="#969696"/>
</svg>
