<svg width="57" height="8" viewBox="0 0 57 8" fill="none" xmlns="http://www.w3.org/2000/svg">
<path d="M4.41159 6.3208C3.95456 6.85824 3.28382 7.12695 2.39938 7.12695C1.66729 7.12695 1.10869 6.91536 0.723602 6.49219C0.342743 6.06478 0.150197 5.43424 0.145966 4.60059V0.131836H1.32028V4.56885C1.32028 5.60986 1.74346 6.13037 2.58981 6.13037C3.48695 6.13037 4.08363 5.79606 4.37985 5.12744V0.131836H5.55417V7H4.43698L4.41159 6.3208ZM11.3432 5.17822C11.3432 4.86084 11.2226 4.6154 10.9814 4.44189C10.7444 4.26416 10.3276 4.11182 9.73093 3.98486C9.13848 3.85791 8.66664 3.70557 8.3154 3.52783C7.96839 3.3501 7.71026 3.13851 7.54099 2.89307C7.37595 2.64762 7.29343 2.35563 7.29343 2.01709C7.29343 1.45426 7.53041 0.97819 8.00436 0.588867C8.48255 0.199544 9.09193 0.00488281 9.83249 0.00488281C10.6111 0.00488281 11.2417 0.205892 11.7241 0.60791C12.2107 1.00993 12.4541 1.52409 12.4541 2.15039H11.2734C11.2734 1.82878 11.1359 1.5516 10.8608 1.31885C10.59 1.0861 10.2472 0.969727 9.83249 0.969727C9.40508 0.969727 9.07077 1.06283 8.82956 1.24902C8.58835 1.43522 8.46774 1.67855 8.46774 1.979C8.46774 2.26253 8.57988 2.47624 8.80417 2.62012C9.02845 2.764 9.43259 2.90153 10.0166 3.03271C10.6048 3.1639 11.0809 3.32048 11.4448 3.50244C11.8087 3.68441 12.0774 3.90446 12.2509 4.1626C12.4287 4.4165 12.5175 4.72754 12.5175 5.0957C12.5175 5.70931 12.2721 6.20231 11.7812 6.57471C11.2903 6.94287 10.6535 7.12695 9.87057 7.12695C9.32044 7.12695 8.83379 7.02962 8.41061 6.83496C7.98744 6.6403 7.65524 6.36947 7.41403 6.02246C7.17705 5.67122 7.05856 5.29248 7.05856 4.88623H8.23288C8.25404 5.27979 8.41061 5.59294 8.70261 5.82568C8.99883 6.0542 9.38815 6.16846 9.87057 6.16846C10.3149 6.16846 10.6704 6.07959 10.937 5.90186C11.2078 5.71989 11.3432 5.47868 11.3432 5.17822ZM16.8974 7.12695C15.9664 7.12695 15.209 6.82227 14.625 6.21289C14.041 5.59928 13.749 4.78044 13.749 3.75635V3.54053C13.749 2.85921 13.8781 2.25195 14.1362 1.71875C14.3986 1.18132 14.7625 0.76237 15.228 0.461914C15.6977 0.157227 16.2055 0.00488281 16.7514 0.00488281C17.6443 0.00488281 18.3383 0.298991 18.8335 0.887207C19.3286 1.47542 19.5761 2.31755 19.5761 3.41357V3.90234H14.9233C14.9402 4.57943 15.137 5.12744 15.5136 5.54639C15.8945 5.9611 16.3769 6.16846 16.9609 6.16846C17.3756 6.16846 17.7269 6.08382 18.0146 5.91455C18.3024 5.74528 18.5542 5.521 18.77 5.2417L19.4873 5.80029C18.9118 6.68473 18.0485 7.12695 16.8974 7.12695ZM16.7514 0.969727C16.2775 0.969727 15.8797 1.14323 15.5581 1.49023C15.2365 1.83301 15.0376 2.31543 14.9614 2.9375H18.4018V2.84863C18.368 2.25195 18.2072 1.79069 17.9194 1.46484C17.6316 1.13477 17.2423 0.969727 16.7514 0.969727ZM24.2607 1.18555C24.083 1.15592 23.8904 1.14111 23.6831 1.14111C22.9129 1.14111 22.3903 1.46908 22.1152 2.125V7H20.9409V0.131836H22.0835L22.1025 0.925293C22.4876 0.311686 23.0335 0.00488281 23.7402 0.00488281C23.9687 0.00488281 24.1422 0.0345052 24.2607 0.09375V1.18555ZM26.457 0.131836L26.4951 0.995117C27.0198 0.334961 27.7054 0.00488281 28.5517 0.00488281C30.0032 0.00488281 30.7353 0.82373 30.748 2.46143V7H29.5737V2.45508C29.5695 1.95996 29.4552 1.59391 29.2309 1.35693C29.0109 1.11995 28.666 1.00146 28.1963 1.00146C27.8154 1.00146 27.4811 1.10303 27.1933 1.30615C26.9056 1.50928 26.6813 1.77588 26.5205 2.10596V7H25.3462V0.131836H26.457ZM36.7592 7C36.6915 6.86458 36.6365 6.62337 36.5942 6.27637C36.0483 6.84342 35.3966 7.12695 34.6391 7.12695C33.962 7.12695 33.4056 6.93652 32.9697 6.55566C32.5381 6.17057 32.3222 5.68392 32.3222 5.0957C32.3222 4.38053 32.5931 3.82617 33.1347 3.43262C33.6806 3.03483 34.4466 2.83594 35.4326 2.83594H36.5752V2.29639C36.5752 1.8859 36.4524 1.56006 36.207 1.31885C35.9616 1.0734 35.5997 0.950684 35.1216 0.950684C34.7026 0.950684 34.3514 1.05648 34.0678 1.26807C33.7843 1.47965 33.6425 1.73568 33.6425 2.03613H32.4619C32.4619 1.69336 32.5825 1.36328 32.8237 1.0459C33.0691 0.724284 33.3992 0.470378 33.8139 0.28418C34.2329 0.0979818 34.692 0.00488281 35.1914 0.00488281C35.9827 0.00488281 36.6027 0.203776 37.0512 0.601562C37.4998 0.995117 37.7326 1.5389 37.7495 2.23291V5.39404C37.7495 6.02458 37.8299 6.52604 37.9907 6.89844V7H36.7592ZM34.8105 6.10498C35.1787 6.10498 35.5278 6.00977 35.8579 5.81934C36.188 5.62891 36.4271 5.38135 36.5752 5.07666V3.66748H35.6548C34.216 3.66748 33.4966 4.08854 33.4966 4.93066C33.4966 5.29883 33.6193 5.58659 33.8647 5.79395C34.1102 6.0013 34.4254 6.10498 34.8105 6.10498ZM40.6948 0.131836L40.7265 0.893555C41.2301 0.301107 41.9093 0.00488281 42.7641 0.00488281C43.7247 0.00488281 44.3786 0.373047 44.7256 1.10938C44.9541 0.779297 45.2503 0.512695 45.6142 0.30957C45.9824 0.106445 46.4161 0.00488281 46.9155 0.00488281C48.422 0.00488281 49.188 0.802572 49.2133 2.39795V7H48.039V2.46777C48.039 1.97689 47.9269 1.61084 47.7026 1.36963C47.4783 1.12419 47.1017 1.00146 46.5727 1.00146C46.1369 1.00146 45.775 1.13265 45.4873 1.39502C45.1995 1.65316 45.0324 2.00228 44.9858 2.44238V7H43.8051V2.49951C43.8051 1.50081 43.3164 1.00146 42.3388 1.00146C41.5687 1.00146 41.0418 1.32943 40.7583 1.98535V7H39.584V0.131836H40.6948ZM53.8408 7.12695C52.9098 7.12695 52.1523 6.82227 51.5683 6.21289C50.9843 5.59928 50.6924 4.78044 50.6924 3.75635V3.54053C50.6924 2.85921 50.8214 2.25195 51.0796 1.71875C51.3419 1.18132 51.7059 0.76237 52.1714 0.461914C52.6411 0.157227 53.1489 0.00488281 53.6948 0.00488281C54.5877 0.00488281 55.2817 0.298991 55.7768 0.887207C56.2719 1.47542 56.5195 2.31755 56.5195 3.41357V3.90234H51.8667C51.8836 4.57943 52.0804 5.12744 52.457 5.54639C52.8379 5.9611 53.3203 6.16846 53.9043 6.16846C54.319 6.16846 54.6702 6.08382 54.958 5.91455C55.2457 5.74528 55.4975 5.521 55.7133 5.2417L56.4306 5.80029C55.8551 6.68473 54.9918 7.12695 53.8408 7.12695ZM53.6948 0.969727C53.2208 0.969727 52.823 1.14323 52.5014 1.49023C52.1798 1.83301 51.9809 2.31543 51.9048 2.9375H55.3452V2.84863C55.3113 2.25195 55.1505 1.79069 54.8628 1.46484C54.575 1.13477 54.1857 0.969727 53.6948 0.969727Z" fill="#969696"/>
</svg>
